PathFileType	4	(X/Y/Z)	pose_F01_0-94.trc
DataRate	CameraRate	NumFrames	NumMarkers	Units	OrigDataRate	OrigDataStartFrame	OrigNumFrames
30	30	8	21	m	30	11	94
Frame#	Time	CHip			RHip			RKnee			RAnkle			RBigToe			RSmallToe			RHeel			LHip			LKnee			LAnkle			LBigToe			LSmallToe			LHeel			Neck			Nose			RShoulder			RElbow			RWrist			LShoulder			LElbow			LWrist			
		X1	Y1	Z1	X2	Y2	Z2	X3	Y3	Z3	X4	Y4	Z4	X5	Y5	Z5	X6	Y6	Z6	X7	Y7	Z7	X8	Y8	Z8	X9	Y9	Z9	X10	Y10	Z10	X11	Y11	Z11	X12	Y12	Z12	X13	Y13	Z13	X14	Y14	Z14	X15	Y15	Z15	X16	Y16	Z16	X17	Y17	Z17	X18	Y18	Z18	X19	Y19	Z19	X20	Y20	Z20	X21	Y21	Z21	
11	0.36666666666666664	-0.30122011879684124	1.8249824022215124	-0.5278711171822882	-0.30889842657118266	1.822912281533317	-0.4752772498715114	-0.3285862910746057	1.6913179052787877	-0.4723047061481821	-0.3283011477815	1.5533014548820634	-0.4549230056950308	-0.29253428361235734	1.532176843170137	-0.4409117751563611	-0.3051489460379221	1.536520220099721	-0.4177156631456377	-0.3501221260234252	1.5523953708786549	-0.48121068008322665	-0.28553787408359627	1.8279795157830836	-0.5836496682894895	-0.3035545399249541	1.6935088355109413	-0.5609963549645449	-0.30028540741985127	1.5774633938306284	-0.4552195648028982	-0.26828498080724966	1.540340660773363	-0.4635054106477799	-0.2698401471217914	1.5539515545448284	-0.4958433343127238	-0.31847357521801883	1.5705165070534888	-0.45355361145792406	-0.30774536889143256	1.978849176283067	-0.5643917761544073	-0.2793093876388079	2.0395568001956192	-0.5603557533879708	-0.325592820348078	1.9758669120834649	-0.4856356560837083	-0.3202275334938832	1.8929264219672957	-0.4501124298579241	-0.3140884149659889	1.8292407818451883	-0.42551342633247713	-0.2880199297085948	1.9824645567825947	-0.6434741769995537	-0.28937813204470014	1.8940343870196055	-0.6399725554509136	-0.2721993877930863	1.835219252759387	-0.6392215323733643
12	0.4	-0.3023106636476754	1.8218025326516074	-0.5306995833928553	-0.3101425297992905	1.8210835904008522	-0.47830260442597783	-0.31765847402506936	1.6904626368113638	-0.4747450644158276	-0.32801519863737133	1.558076313293196	-0.45568038038578373	-0.2926358680799623	1.5335134894034463	-0.43630703244312213	-0.3068970755269333	1.538436191420863	-0.41625036070191274	-0.3416340915489318	1.550013680353044	-0.4594036277377832	-0.2864883225365946	1.8232796597395518	-0.586363269263208	-0.3046812541624698	1.691866900663972	-0.5639325258847531	-0.30028540741985127	1.5774633938306284	-0.4552195648028982	-0.26828498080724966	1.540340660773363	-0.4635054106477799	-0.2698401471217914	1.5539515545448284	-0.4958433343127238	-0.31847357521801883	1.5705165070534888	-0.45355361145792406	-0.30770824883538744	1.978821954849642	-0.5643557774372635	-0.2762565149510164	2.0365335637285407	-0.5501207725058516	-0.3255848312112487	1.9758388674318885	-0.48568410338682033	-0.32531946237824777	1.89178211438282	-0.44889864238852767	-0.31414791471191433	1.8257078374776277	-0.42526403298619986	-0.2879519593523804	1.9824203944269656	-0.6433702874510415	-0.2863458222602409	1.8933706559827617	-0.647343065495886	-0.2727097655884034	1.8260319873109727	-0.6380418828839772
13	0.43333333333333335	-0.30340120849850954	1.8186226630817024	-0.5335280496034224	-0.3113866330273984	1.8192548992683875	-0.4813279589804443	-0.30673065697553303	1.6896073683439399	-0.4771854226834731	-0.32772924949324267	1.5628511717043287	-0.45643775507653667	-0.2927374525475672	1.5348501356367557	-0.43170228972988317	-0.3086452050159445	1.5403521627420051	-0.4147850582581878	-0.33314605707443845	1.547631989827433	-0.43759657539233976	-0.287438770989593	1.81857980369602	-0.5890768702369266	-0.3058079683999854	1.6902249658170025	-0.5668686968049612	-0.30028540741985127	1.5774633938306284	-0.4552195648028982	-0.26828498080724966	1.540340660773363	-0.4635054106477799	-0.2698401471217914	1.5539515545448284	-0.4958433343127238	-0.31847357521801883	1.5705165070534888	-0.45355361145792406	-0.30767112877934233	1.978794733416217	-0.5643197787201197	-0.27320364226322486	2.033510327261462	-0.5398857916237323	-0.3255768420744194	1.9758108227803122	-0.4857325506899324	-0.3304113912626123	1.8906378067983443	-0.44768485491913124	-0.3142074144578398	1.822174893110067	-0.4250146396399226	-0.28788398899616596	1.9823762320713365	-0.6432663979025294	-0.2833135124757817	1.8927069249459179	-0.6547135755408585	-0.27322014338372047	1.8168447218625585	-0.6368622333945901
14	0.4666666666666667	-0.305563430750406	1.817039255890549	-0.5311928920699612	-0.3134414380732227	1.817380576672913	-0.47908493571643224	-0.29930284821989567	1.6931928725316985	-0.4629749529759269	-0.3242605832311739	1.5670407402223696	-0.4559136736411518	-0.2928390370151721	1.5361867818700652	-0.4270975470166442	-0.30661634143271127	1.5415837535128418	-0.4076526318987824	-0.32465802259994503	1.5452502993018222	-0.4157895230468963	-0.2921071253743513	1.8169900790535278	-0.5843563051363712	-0.3047314433748534	1.6924306945572143	-0.5640276230744713	-0.30028540741985127	1.5774633938306284	-0.4552195648028982	-0.26828498080724966	1.540340660773363	-0.4635054106477799	-0.2698401471217914	1.5539515545448284	-0.4958433343127238	-0.31847357521801883	1.5705165070534888	-0.45355361145792406	-0.3066664735039385	1.9787060802730296	-0.5613664487082187	-0.2723015362008844	2.030766998104314	-0.5362598804508693	-0.3265933837550088	1.975918903178894	-0.4887528195365896	-0.33240222226251664	1.8893890214712608	-0.4453682391937477	-0.31627457758866556	1.817090895354103	-0.4224872133676319	-0.2850091072047706	1.9798828917292886	-0.6420141426536541	-0.2823669999915467	1.8922559429835368	-0.6514987109806567	-0.2742831118940986	1.8191730410129787	-0.6399435981495798
15	0.5	-0.30324488106726916	1.8207869031301123	-0.5251148486935991	-0.3110245776374381	1.8206261393070267	-0.47283110291068686	-0.2961556448021459	1.698185334679709	-0.43504436737799557	-0.3077253877551807	1.5589439427681546	-0.4027002839010059	-0.27585415465436885	1.536679357954837	-0.3653886178475004	-0.28886700052967623	1.5400769438898412	-0.34621116475078956	-0.3161699881254516	1.5428686087762113	-0.39398247070145287	-0.29270712060518683	1.8187045747249333	-0.5791517938517281	-0.30673497984561726	1.6891238195929017	-0.5616592850220852	-0.30028540741985127	1.5774633938306284	-0.4552195648028982	-0.26828498080724966	1.540340660773363	-0.4635054106477799	-0.2698401471217914	1.5539515545448284	-0.4958433343127238	-0.31847357521801883	1.5705165070534888	-0.45355361145792406	-0.3045709439054292	1.9783764043163288	-0.554978961712105	-0.26837457266448517	2.0276124392819983	-0.5231465853520417	-0.3244395096466915	1.9744068275373823	-0.4821762911018581	-0.33734653371284656	1.8902629630964718	-0.4444480667921348	-0.3208113619934553	1.8222481645131723	-0.4135355995912535	-0.2818853091179099	1.981031419151181	-0.6325949418420528	-0.27601257637918014	1.8904233675455078	-0.6408740604132073	-0.27215261330248713	1.8217363235207344	-0.6338512339022877
16	0.5333333333333333	-0.30347433172580834	1.8212084611506412	-0.5163953815487143	-0.31283298687095307	1.8194591445090087	-0.4619717210349569	-0.29873555392658446	1.6973106615922011	-0.4184879834259954	-0.3013129438856759	1.5559118042272178	-0.36670714554291084	-0.2677137795184753	1.5279580981316248	-0.32439659056893433	-0.2797070275790918	1.5310057071506122	-0.3104905460192957	-0.30768195365095824	1.5404869182506005	-0.3721754183560094	-0.29313528229827707	1.8195039731784324	-0.5705183771902762	-0.3066574383323554	1.6882427379774598	-0.5613839694107523	-0.30028540741985127	1.5774633938306284	-0.4552195648028982	-0.26828498080724966	1.540340660773363	-0.4635054106477799	-0.2698401471217914	1.5539515545448284	-0.4958433343127238	-0.31847357521801883	1.5705165070534888	-0.45355361145792406	-0.3016406792011007	1.9783291152905929	-0.5537931427635343	-0.2671381896695052	2.028281786520129	-0.5115735997141504	-0.3233557774633816	1.974448882282872	-0.4789472612320236	-0.33676253162760544	1.8956972295238583	-0.44475072156859047	-0.32793247298752803	1.8291980652156734	-0.40597103019559627	-0.27891675728946935	1.9806642011993785	-0.6234458919613659	-0.2754017054009742	1.8914494782732636	-0.6379303409439255	-0.27152732822453235	1.817657446749677	-0.63038997879682
17	0.5666666666666667	-0.30010965231724523	1.819137316311679	-0.5064133588446411	-0.3125909064691425	1.8157958024861702	-0.45273033202585095	-0.2962598415700049	1.6946029178153552	-0.40241732455383006	-0.30030033657480143	1.5559675585200294	-0.32956223225705095	-0.26522422417106684	1.5304147654389364	-0.28312991973027507	-0.27913212777096913	1.5353107011319949	-0.26722541138281	-0.3028659642389631	1.538820446080216	-0.334576877124102	-0.2848968810939315	1.8186966313359163	-0.5619378082842236	-0.30770777878396266	1.6849302511971427	-0.5556883097390786	-0.30028540741985127	1.5774633938306284	-0.4552195648028982	-0.26828498080724966	1.540340660773363	-0.4635054106477799	-0.2698401471217914	1.5539515545448284	-0.4958433343127238	-0.31847357521801883	1.5705165070534888	-0.45355361145792406	-0.2974614296288986	1.976825016921327	-0.5409250005259854	-0.2632176025878327	2.0238703174119745	-0.4980735505823599	-0.31995250465221725	1.9713101654376803	-0.46840690856346434	-0.3338102929634295	1.890558206431838	-0.4343101441037406	-0.32749686602159706	1.8184827719066867	-0.4007918576831063	-0.27401056315847433	1.9801475731900233	-0.6162670250789858	-0.2682041808784298	1.8912660437992381	-0.632475552386598	-0.26520502649515065	1.8148499326597631	-0.6194491510805281
18	0.6	-0.29883927543987515	1.8180205446933808	-0.4993226098148213	-0.31425511608880136	1.8143354370982543	-0.4380789291882837	-0.3040796886328671	1.691495639681916	-0.3795282031242821	-0.296711611361962	1.5558749480223968	-0.3042127762014525	-0.2601636474664825	1.531171395762314	-0.24929556942044412	-0.27394582253146427	1.5362706497493224	-0.23365125202045672	-0.29977411294955414	1.5428309921653076	-0.3138575539462062	-0.28762113518361954	1.8166354289174977	-0.5504440282003451	-0.30916279911770833	1.6852601586810712	-0.549693277236147	-0.30028540741985127	1.5774633938306284	-0.4552195648028982	-0.26828498080724966	1.540340660773363	-0.4635054106477799	-0.2698401471217914	1.5539515545448284	-0.4958433343127238	-0.31847357521801883	1.5705165070534888	-0.45355361145792406	-0.29633671783181453	1.9763834997357623	-0.529386387956005	-0.2611422020039995	2.0208639996223368	-0.48270628889948114	-0.3209962655443981	1.9738368681093388	-0.4639967010188637	-0.3315022876351327	1.888247997739455	-0.4145551988091376	-0.327090330741483	1.8153952368501225	-0.3799823958037476	-0.26913584414560343	1.9785134074557948	-0.6001998867435736	-0.26430980013492866	1.8914531853376424	-0.6198266947682589	-0.2622478938264627	1.8172974886785225	-0.6101937394562154
